<?xml version="1.0" encoding="utf-8"?>
<!-- Generator: Adobe Illustrator 15.1.0, SVG Export Plug-In . SVG Version: 6.00 Build 0)  -->
<!DOCTYPE svg PUBLIC "-//W3C//DTD SVG 1.1//EN" "http://www.w3.org/Graphics/SVG/1.1/DTD/svg11.dtd">
<svg version="1.1" id="Layer_1" xmlns="http://www.w3.org/2000/svg" xmlns:xlink="http://www.w3.org/1999/xlink" x="0px" y="0px"
	 width="50px" height="45px" viewBox="0 0 50 45" enable-background="new 0 0 50 45" xml:space="preserve">
<g>
	<g>
		<defs>
			<path id="SVGID_1_" d="M44.369,33.148c-2.883,6.521-13.971,7.937-24.765,3.164C8.811,31.541,2.396,22.387,5.277,15.866
				c1.158-2.619,4.845-2.736,6.895-5.316C15.144,6.809,22.678-3.355,29.137-0.501c5.256,2.325,10.379,18.888,12.988,22.479
				C44.879,25.764,45.85,29.804,44.369,33.148z"/>
		</defs>
		<clipPath id="SVGID_2_">
			<use xlink:href="#SVGID_1_"  overflow="visible"/>
		</clipPath>
		<polygon clip-path="url(#SVGID_2_)" fill="#FFFFFF" points="14.047,10.763 24.491,3.672 24.491,1.499 14.122,8.56 		"/>
		<polygon clip-path="url(#SVGID_2_)" fill="#FFFFFF" points="1.971,25.953 12.125,21.106 12.266,18.887 2.145,24.247 		"/>
		<polygon clip-path="url(#SVGID_2_)" fill="#FFFFFF" points="1.971,23.034 12.125,17.857 12.266,15.64 2.145,20.999 		"/>
		<polygon clip-path="url(#SVGID_2_)" fill="#FFFFFF" points="1.681,29.068 11.964,24.25 12.084,22.032 1.855,27.113 		"/>
		<polygon clip-path="url(#SVGID_2_)" fill="#FFFFFF" points="1.332,32.286 11.762,27.657 11.903,25.44 1.526,30.369 		"/>
		<polygon clip-path="url(#SVGID_2_)" fill="#FFFFFF" points="0.982,35.731 11.561,31.108 11.702,28.87 1.157,33.856 		"/>
		<polygon clip-path="url(#SVGID_2_)" fill="#FFFFFF" points="50.102,27.359 36.971,21.106 36.83,18.887 49.928,25.655 		"/>
		<polygon clip-path="url(#SVGID_2_)" fill="#FFFFFF" points="47.414,29.068 37.133,24.25 37.01,22.032 47.24,27.113 		"/>
		<polygon clip-path="url(#SVGID_2_)" fill="#FFFFFF" points="47.764,32.286 37.332,27.657 37.191,25.44 47.57,30.369 		"/>
		<polygon clip-path="url(#SVGID_2_)" fill="#FFFFFF" points="48.111,35.731 37.535,31.108 37.393,28.87 47.938,33.856 		"/>
		<polygon clip-path="url(#SVGID_2_)" fill="#FFFFFF" points="48.111,39.03 37.535,34.701 37.393,32.464 47.938,36.778 		"/>
		<polygon clip-path="url(#SVGID_2_)" fill="#FFFFFF" points="13.844,14.029 24.491,7.479 24.491,5.104 13.971,11.775 		"/>
		<polygon clip-path="url(#SVGID_2_)" fill="#FFFFFF" points="13.666,17.271 24.491,11.133 24.491,8.699 13.793,14.992 		"/>
		<polygon clip-path="url(#SVGID_2_)" fill="#FFFFFF" points="13.515,20.386 24.491,14.93 24.491,12.314 13.642,18.107 		"/>
		<polygon clip-path="url(#SVGID_2_)" fill="#FFFFFF" points="13.338,23.678 24.491,18.678 24.491,16.247 13.464,21.45 		"/>
		<polygon clip-path="url(#SVGID_2_)" fill="#FFFFFF" points="13.186,27.146 24.491,22.817 24.491,20.263 13.236,24.97 		"/>
		<polygon clip-path="url(#SVGID_2_)" fill="#FFFFFF" points="12.983,30.718 24.491,27.112 24.491,24.473 13.083,28.564 		"/>
		<polygon clip-path="url(#SVGID_2_)" fill="#FFFFFF" points="12.755,34.44 24.491,31.77 24.491,28.717 12.932,32.313 		"/>
		<polygon clip-path="url(#SVGID_2_)" fill="#FFFFFF" points="12.577,38.24 24.491,36.736 24.491,33.686 12.68,36.315 		"/>
		<polygon clip-path="url(#SVGID_2_)" fill="#FFFFFF" points="34.934,10.763 24.489,3.672 24.489,1.499 34.855,8.56 		"/>
		<polygon clip-path="url(#SVGID_2_)" fill="#FFFFFF" points="35.137,14.029 24.489,7.479 24.489,5.104 35.008,11.775 		"/>
		<polygon clip-path="url(#SVGID_2_)" fill="#FFFFFF" points="35.314,17.271 24.489,11.133 24.489,8.699 35.188,14.992 		"/>
		<polygon clip-path="url(#SVGID_2_)" fill="#FFFFFF" points="35.465,20.386 24.489,14.93 24.489,12.314 35.336,18.107 		"/>
		<polygon clip-path="url(#SVGID_2_)" fill="#FFFFFF" points="35.643,23.678 24.489,18.678 24.489,16.247 35.514,21.45 		"/>
		<polygon clip-path="url(#SVGID_2_)" fill="#FFFFFF" points="35.795,27.146 24.489,22.817 24.489,20.263 35.742,24.97 		"/>
		<polygon clip-path="url(#SVGID_2_)" fill="#FFFFFF" points="35.998,30.718 24.489,27.112 24.489,24.473 35.895,28.564 		"/>
		<polygon clip-path="url(#SVGID_2_)" fill="#FFFFFF" points="36.225,34.44 24.489,31.77 24.489,28.717 36.049,32.313 		"/>
		<polygon clip-path="url(#SVGID_2_)" fill="#FFFFFF" points="36.402,38.24 24.489,36.736 24.489,33.686 36.301,36.315 		"/>
	</g>
	<path fill="#FFFFFF" d="M45.193,23.274c2.605,3.588,3.43,7.401,1.857,10.655c-3.268,6.757-15.607,8.536-27.565,3.976
		c-11.956-4.56-19-13.731-15.735-20.488c1.411-2.917,4.519-4.902,8.554-5.854c-6.125,0.462-9.689,2.651-11.506,6.408
		c-3.452,7.141,3.837,17.228,17.747,22.531c13.909,5.306,27.112,3.086,30.565-4.053C51.115,32.301,49.961,27.895,45.193,23.274z"/>
</g>
</svg>
